<?xml version="1.0" encoding="iso-8859-1"?>
<!-- Generator: Adobe Illustrator 19.0.0, SVG Export Plug-In . SVG Version: 6.00 Build 0)  -->
<svg version="1.1" id="Layer_1" xmlns="http://www.w3.org/2000/svg" xmlns:xlink="http://www.w3.org/1999/xlink" x="0px" y="0px"
	 viewBox="0 0 512.043 512.043" style="enable-background:new 0 0 512.043 512.043;" xml:space="preserve">
<g>
	<g>
		<g>
			<path d="M238.976,477.888h-0.085c-4.71,0-8.491,3.823-8.491,8.533s3.866,8.533,8.576,8.533c4.71,0,8.533-3.823,8.533-8.533
				S243.686,477.888,238.976,477.888z"/>
			<path d="M256.043,494.955h-0.085c-4.71,0-8.491,3.823-8.491,8.533s3.857,8.533,8.576,8.533c4.71,0,8.533-3.823,8.533-8.533
				S260.753,494.955,256.043,494.955z"/>
			<path d="M85.376,418.155h-0.085c-4.71,0-8.491,3.823-8.491,8.533s3.857,8.533,8.576,8.533s8.533-3.823,8.533-8.533
				S90.095,418.155,85.376,418.155z"/>
			<path d="M273.109,477.888h-0.094c-4.702,0-8.482,3.823-8.482,8.533s3.866,8.533,8.576,8.533s8.533-3.823,8.533-8.533
				S277.82,477.888,273.109,477.888z"/>
			<path d="M388.796,131.81c4.71,0,8.533-3.823,8.533-8.533s-3.823-8.533-8.533-8.533h-0.094c-4.71,0-8.482,3.823-8.482,8.533
				S384.077,131.81,388.796,131.81z"/>
			<path d="M264.32,128.021c0,1.007,0.196,8.533,6.016,17.075c-5.82,8.525-6.016,16.06-6.016,17.067v36.634
				c0,3.772,2.483,7.108,6.101,8.175c3.439,1.024,6.707,2.372,9.711,4.002c1.289,0.691,2.679,1.032,4.07,1.032
				c2.21,0,4.395-0.862,6.033-2.5l25.899-25.899c0.708-0.708,5.897-6.178,7.817-16.324c10.155-1.92,15.616-7.108,16.324-7.817
				l23.441-23.441c1.715-1.707,2.62-4.07,2.492-6.477c-0.128-2.415-1.271-4.668-3.157-6.187
				c-25.702-20.813-56.585-33.621-89.31-37.052c-2.441-0.23-4.796,0.538-6.596,2.15c-1.801,1.621-2.825,3.925-2.825,6.34V128.021z
				 M281.387,162.359c0.009-0.222,0.341-5.538,6.033-11.238c3.337-3.328,3.337-8.73,0-12.058c-5.692-5.7-6.025-11.025-6.033-11.042
				v-23.45c22.818,3.831,44.425,12.8,63.36,26.3l-16.393,16.384c-0.171,0.154-4.156,3.678-12.211,3.678
				c-4.702,0-8.533,3.814-8.533,8.533c-0.009,8.055-3.533,12.049-3.541,12.075l-21.632,21.632c-0.35-0.145-0.7-0.29-1.05-0.427
				V162.359z"/>
			<path d="M426.709,418.155h-0.094c-4.702,0-8.482,3.823-8.482,8.533s3.866,8.533,8.576,8.533c4.71,0,8.533-3.823,8.533-8.533
				S431.42,418.155,426.709,418.155z"/>
			<path d="M25.643,264.555h-0.085c-4.71,0-8.491,3.823-8.491,8.533s3.857,8.533,8.576,8.533c4.71,0,8.533-3.823,8.533-8.533
				S30.353,264.555,25.643,264.555z"/>
			<path d="M426.709,93.888c4.71,0,8.533-3.823,8.533-8.533c0-4.71-3.823-8.533-8.533-8.533h-0.094
				c-4.702,0-8.482,3.823-8.482,8.533C418.133,90.065,421.999,93.888,426.709,93.888z"/>
			<path d="M273.109,34.155c4.71,0,8.533-3.823,8.533-8.533c0-4.71-3.823-8.533-8.533-8.533h-0.094
				c-4.702,0-8.482,3.823-8.482,8.533C264.533,30.332,268.399,34.155,273.109,34.155z"/>
			<path d="M256.043,17.088c4.71,0,8.533-3.823,8.533-8.533s-3.823-8.533-8.533-8.533h-0.085c-4.71,0-8.491,3.823-8.491,8.533
				S251.324,17.088,256.043,17.088z"/>
			<path d="M8.576,247.488H8.491c-4.71,0-8.491,3.823-8.491,8.533s3.857,8.533,8.576,8.533s8.533-3.823,8.533-8.533
				S13.295,247.488,8.576,247.488z"/>
			<path d="M486.443,247.488c4.71,0,8.533-3.823,8.533-8.533s-3.823-8.533-8.533-8.533h-0.094c-4.702,0-8.482,3.823-8.482,8.533
				S481.724,247.488,486.443,247.488z"/>
			<path d="M25.643,247.488c4.71,0,8.533-3.823,8.533-8.533s-3.823-8.533-8.533-8.533h-0.085c-4.71,0-8.491,3.823-8.491,8.533
				S20.924,247.488,25.643,247.488z"/>
			<path d="M85.376,93.888c4.719,0,8.533-3.823,8.533-8.533c0-4.71-3.814-8.533-8.533-8.533h-0.085c-4.71,0-8.491,3.823-8.491,8.533
				C76.8,90.065,80.657,93.888,85.376,93.888z"/>
			<path d="M238.976,34.155c4.71,0,8.533-3.823,8.533-8.533c0-4.71-3.823-8.533-8.533-8.533h-0.085c-4.71,0-8.491,3.823-8.491,8.533
				C230.4,30.332,234.266,34.155,238.976,34.155z"/>
			<path d="M486.443,264.555h-0.094c-4.702,0-8.482,3.823-8.482,8.533s3.857,8.533,8.576,8.533c4.71,0,8.533-3.823,8.533-8.533
				S491.153,264.555,486.443,264.555z"/>
			<path d="M256.043,435.221h-0.085c-4.71,0-8.491,3.823-8.491,8.533s3.857,8.533,8.576,8.533c4.71,0,8.533-3.823,8.533-8.533
				S260.753,435.221,256.043,435.221z"/>
			<path d="M382.268,145.609c-2.389-0.085-4.77,0.777-6.485,2.492l-23.441,23.433c-0.708,0.708-5.888,6.178-7.817,16.324
				c-10.146,1.929-15.616,7.117-16.324,7.825l-25.899,25.89c-2.662,2.671-3.268,6.775-1.468,10.103
				c1.647,3.029,2.987,6.298,3.994,9.702c1.075,3.618,4.403,6.11,8.183,6.11h36.651c0.998,0,8.542-0.205,17.075-6.016
				c8.533,5.811,16.068,6.016,17.067,6.016h33.203c0.06,0.009,0.119,0,0.162,0c4.719,0,8.533-3.823,8.533-8.533
				c0-0.905-0.137-1.783-0.401-2.611c-3.678-32.085-16.41-62.336-36.847-87.586C386.927,146.88,384.674,145.737,382.268,145.609z
				 M384,230.421c-0.222-0.009-5.538-0.341-11.23-6.033c-1.664-1.664-3.849-2.5-6.033-2.5c-2.185,0-4.369,0.836-6.033,2.5
				c-5.692,5.692-11.017,6.025-11.042,6.033H319.07c-0.145-0.35-0.282-0.7-0.435-1.05l21.641-21.632
				c0.034-0.034,4.036-3.533,12.066-3.541c4.719,0,8.533-3.814,8.533-8.533c0-8.055,3.524-12.041,3.533-12.066l16.538-16.529
				c13.491,18.927,22.46,40.533,26.291,63.352H384z"/>
			<path d="M239.608,408.751c-26.291-2.748-51.251-12.237-72.772-27.571l16.41-16.41c0.171-0.154,4.164-3.678,12.22-3.686
				c4.71,0,8.533-3.823,8.533-8.533c0-8.055,3.524-12.049,3.533-12.066l21.606-21.615c0.35,0.145,0.7,0.29,1.05,0.435v30.387
				c-0.009,0.213-0.341,5.538-6.033,11.23c-3.336,3.337-3.336,8.738,0,12.075c5.547,5.547,6.008,10.735,6.033,11.204
				c0.094,4.634,3.883,8.354,8.533,8.354c4.71,0,8.533-3.814,8.533-8.533c0-0.998-0.205-8.525-6.016-17.067
				c5.811-8.533,6.016-16.06,6.016-17.067v-36.642c0-3.772-2.483-7.1-6.101-8.175c-3.439-1.024-6.707-2.372-9.711-4.002
				c-3.328-1.801-7.432-1.195-10.103,1.468l-25.873,25.882c-0.708,0.708-5.888,6.178-7.817,16.324
				c-10.155,1.929-15.625,7.117-16.324,7.825l-23.467,23.45c-1.715,1.715-2.62,4.07-2.492,6.485s1.271,4.668,3.157,6.187
				c25.702,20.804,56.585,33.613,89.31,37.043c0.299,0.026,0.597,0.043,0.896,0.043c4.318,0,8.021-3.26,8.482-7.646
				C247.697,413.444,244.292,409.246,239.608,408.751z"/>
			<path d="M167.074,324.169c10.146-1.929,15.616-7.108,16.324-7.817l25.873-25.882c2.671-2.671,3.268-6.775,1.468-10.103
				c-1.63-3.012-2.978-6.272-4.002-9.711c-1.075-3.618-4.395-6.101-8.175-6.101h-36.625c-1.007,0-8.533,0.205-17.067,6.016
				c-8.533-5.803-16.06-6.016-17.075-6.016H94.566c-2.415,0-4.719,1.024-6.34,2.825c-1.621,1.792-2.398,4.19-2.15,6.596
				c3.43,32.725,16.239,63.607,37.043,89.31c1.519,1.886,3.772,3.029,6.187,3.157c0.154,0.009,0.299,0.009,0.444,0.009
				c2.261,0,4.429-0.896,6.042-2.5l23.458-23.467C159.966,339.776,165.137,334.315,167.074,324.169z M150.724,316.343
				c0,8.064-3.533,12.058-3.541,12.075l-16.555,16.555c-13.491-18.927-22.46-40.533-26.291-63.351h23.262
				c0.222,0.017,5.538,0.341,11.238,6.033c3.328,3.336,8.73,3.336,12.066,0c5.692-5.692,11.008-6.025,11.034-6.033h30.566
				c0.145,0.35,0.29,0.7,0.435,1.05l-21.461,21.47c-0.171,0.154-4.164,3.678-12.211,3.678
				C154.547,307.819,150.733,311.633,150.724,316.343z"/>
			<path d="M388.796,380.233h-0.094c-4.71,0-8.482,3.823-8.482,8.533s3.857,8.533,8.576,8.533c4.71,0,8.533-3.823,8.533-8.533
				S393.506,380.233,388.796,380.233z"/>
			<path d="M340.267,352.576c-0.708-0.717-6.17-5.888-16.316-7.825c-1.929-10.138-7.117-15.607-7.825-16.316l-25.89-25.899
				c-2.671-2.671-6.784-3.251-10.103-1.468c-3.004,1.63-6.272,2.978-9.711,4.002c-3.618,1.075-6.101,4.403-6.101,8.175v36.642
				c0,1.007,0.196,8.533,6.016,17.067c-5.82,8.542-6.016,16.068-6.016,17.067v33.22c0,2.415,1.024,4.719,2.825,6.34
				c1.579,1.417,3.61,2.193,5.709,2.193c0.29,0,0.589-0.017,0.887-0.043c32.734-3.43,63.616-16.239,89.31-37.043
				c1.886-1.519,3.029-3.772,3.157-6.187s-0.777-4.77-2.492-6.485L340.267,352.576z M281.387,407.471v-23.245
				c0.009-0.222,0.341-5.538,6.033-11.23c3.337-3.337,3.337-8.738,0-12.075c-5.692-5.692-6.025-11.017-6.033-11.034v-30.583
				c0.35-0.145,0.7-0.29,1.05-0.435l21.487,21.487c0.145,0.171,3.678,4.164,3.678,12.22c0,4.71,3.814,8.533,8.533,8.533
				c8.055,0,12.041,3.524,12.066,3.524l16.546,16.546C325.811,394.671,304.213,403.639,281.387,407.471z"/>
			<path d="M417.007,264.555h-33.203c-0.998,0-8.533,0.205-17.067,6.016c-8.533-5.803-16.06-6.016-17.075-6.016h-36.651
				c-3.78,0-7.108,2.492-8.183,6.11c-1.007,3.405-2.347,6.673-3.994,9.702c-1.801,3.328-1.195,7.432,1.468,10.103l25.899,25.89
				c0.708,0.708,6.178,5.897,16.316,7.817c1.928,10.146,7.108,15.616,7.825,16.324l23.441,23.45c1.604,1.604,3.78,2.5,6.033,2.5
				c0.154,0,0.307-0.009,0.452-0.009c2.415-0.128,4.659-1.271,6.187-3.157c20.804-25.702,33.613-56.585,37.035-89.31
				c0.256-2.406-0.529-4.804-2.142-6.596C421.726,265.579,419.422,264.555,417.007,264.555z M380.945,344.973l-16.401-16.393
				c-0.145-0.171-3.669-4.156-3.669-12.211c0-4.71-3.823-8.533-8.533-8.533c-8.055,0-12.049-3.524-12.075-3.541l-21.632-21.623
				c0.154-0.35,0.29-0.691,0.435-1.05h30.396c0.222,0.017,5.547,0.341,11.238,6.033c3.328,3.336,8.73,3.336,12.066,0
				c5.692-5.692,11.008-6.025,11.034-6.033h23.433C403.405,304.439,394.436,326.046,380.945,344.973z"/>
			<path d="M123.298,380.224h-0.085c-4.71,0-8.491,3.823-8.491,8.533s3.866,8.533,8.576,8.533c4.719,0,8.533-3.823,8.533-8.533
				S128.017,380.224,123.298,380.224z"/>
			<path d="M255.787,34.155c-122.334,0-221.867,99.533-221.867,221.867s99.533,221.867,221.867,221.867
				c122.342,0,221.867-99.533,221.867-221.867S378.129,34.155,255.787,34.155z M255.787,460.821
				c-112.922,0-204.8-91.878-204.8-204.8s91.878-204.8,204.8-204.8s204.8,91.878,204.8,204.8S368.708,460.821,255.787,460.821z"/>
			<path d="M171.315,159.484c0.708,0.708,6.178,5.888,16.324,7.817c1.929,10.146,7.108,15.607,7.817,16.316l25.882,25.89
				c1.638,1.638,3.823,2.5,6.033,2.5c1.382,0,2.79-0.341,4.07-1.032c3.004-1.63,6.272-2.978,9.711-4.002
				c3.618-1.067,6.101-4.403,6.101-8.175v-36.634c0-1.007-0.205-8.542-6.016-17.067c5.811-8.542,6.016-16.068,6.016-17.075v-33.22
				c0-2.415-1.024-4.719-2.825-6.34s-4.215-2.389-6.596-2.15c-32.725,3.43-63.607,16.239-89.31,37.043
				c-1.886,1.519-3.029,3.772-3.157,6.187c-0.128,2.415,0.777,4.77,2.492,6.485L171.315,159.484z M230.187,104.572v23.253
				c-0.009,0.213-0.341,5.538-6.033,11.238c-3.336,3.328-3.336,8.73,0,12.058c5.692,5.7,6.025,11.017,6.033,11.042v30.583
				c-0.35,0.137-0.7,0.282-1.05,0.427l-21.478-21.478c-0.145-0.162-3.669-4.156-3.669-12.211c0-4.71-3.823-8.533-8.533-8.533
				c-8.055,0-12.041-3.524-12.066-3.541l-16.555-16.546C185.762,117.372,207.369,108.403,230.187,104.572z"/>
			<path d="M256.043,76.821c4.71,0,8.533-3.823,8.533-8.533s-3.823-8.533-8.533-8.533h-0.085c-4.71,0-8.491,3.823-8.491,8.533
				S251.324,76.821,256.043,76.821z"/>
			<path d="M443.776,264.555c4.71,0,8.533-3.823,8.533-8.533s-3.823-8.533-8.533-8.533h-0.085c-4.71,0-8.491,3.823-8.491,8.533
				S439.066,264.555,443.776,264.555z"/>
			<path d="M255.787,221.888c-18.825,0-34.133,15.309-34.133,34.133c0,18.825,15.309,34.133,34.133,34.133
				c18.825,0,34.133-15.309,34.133-34.133C289.92,237.197,274.611,221.888,255.787,221.888z M255.787,273.088
				c-9.412,0-17.067-7.654-17.067-17.067c0-9.412,7.654-17.067,17.067-17.067c9.412,0,17.067,7.654,17.067,17.067
				C272.853,265.434,265.199,273.088,255.787,273.088z"/>
			<path d="M123.298,131.81c4.719,0,8.533-3.823,8.533-8.533s-3.814-8.533-8.533-8.533h-0.085c-4.71,0-8.491,3.823-8.491,8.533
				S118.588,131.81,123.298,131.81z"/>
			<path d="M68.318,247.488h-0.085c-4.71,0-8.491,3.814-8.491,8.533c0,4.71,3.857,8.533,8.576,8.533c4.71,0,8.533-3.823,8.533-8.533
				C76.851,251.302,73.028,247.488,68.318,247.488z"/>
			<path d="M94.566,247.488h33.229c1.007,0,8.542-0.205,17.075-6.016c8.533,5.811,16.06,6.016,17.067,6.016h36.625
				c3.772,0,7.1-2.483,8.175-6.101c1.024-3.439,2.372-6.707,4.002-9.711c1.801-3.328,1.203-7.433-1.468-10.103l-25.882-25.882
				c-0.708-0.708-6.178-5.888-16.324-7.817c-1.929-10.146-7.117-15.616-7.825-16.324l-23.45-23.458
				c-1.715-1.715-4.045-2.577-6.485-2.483c-2.415,0.119-4.668,1.271-6.187,3.149c-20.804,25.702-33.613,56.585-37.043,89.31
				c-0.247,2.406,0.529,4.804,2.15,6.596C89.847,246.464,92.151,247.488,94.566,247.488z M130.628,167.07l16.41,16.41
				c0.154,0.162,3.678,4.156,3.678,12.211c0,4.71,3.823,8.533,8.533,8.533c8.055,0,12.049,3.524,12.075,3.533l21.615,21.615
				c-0.145,0.35-0.29,0.7-0.435,1.05h-30.37c-0.222-0.009-5.538-0.341-11.23-6.033c-1.664-1.664-3.849-2.5-6.033-2.5
				c-2.185,0-4.369,0.836-6.033,2.5c-5.7,5.692-11.017,6.025-11.042,6.033h-23.458C108.169,207.603,117.137,185.997,130.628,167.07z
				"/>
			<path d="M503.509,247.488h-0.094c-4.702,0-8.482,3.823-8.482,8.533s3.866,8.533,8.576,8.533s8.533-3.823,8.533-8.533
				S508.22,247.488,503.509,247.488z"/>
		</g>
	</g>
</g>
<g>
</g>
<g>
</g>
<g>
</g>
<g>
</g>
<g>
</g>
<g>
</g>
<g>
</g>
<g>
</g>
<g>
</g>
<g>
</g>
<g>
</g>
<g>
</g>
<g>
</g>
<g>
</g>
<g>
</g>
</svg>
